<svg xmlns="http://www.w3.org/2000/svg" width="320" height="320" viewBox="0 0 320 320" role="img" aria-labelledby="title desc">
  <title id="title">Team Member Nora</title>
  <desc id="desc">Illustrated placeholder avatar for team member Nora.</desc>
  <defs>
    <linearGradient id="teamGradientNora" x1="0" x2="1" y1="1" y2="0">
      <stop offset="0" stop-color="#0ea5e9" />
      <stop offset="1" stop-color="#22d3ee" />
    </linearGradient>
  </defs>
  <rect width="320" height="320" rx="28" fill="url(#teamGradientNora)" />
  <circle cx="160" cy="120" r="72" fill="#ecfeff" />
  <path d="M160 90a48 48 0 0 1 48 48v12a48 48 0 0 1-96 0v-12a48 48 0 0 1 48-48z" fill="#fff" />
  <path d="M160 70c30 0 58 28 58 68 0 16-4 30-10 42-10-20-29-34-48-34s-38 14-48 34c-6-12-10-26-10-42 0-40 28-68 58-68z" fill="#0c4a6e" fill-opacity="0.4" />
  <ellipse cx="160" cy="232" rx="94" ry="58" fill="#bae6fd" />
</svg>
