<svg xmlns="http://www.w3.org/2000/svg" width="320" height="320" viewBox="0 0 320 320" role="img" aria-labelledby="title desc">
  <title id="title">Team Member Ahmad</title>
  <desc id="desc">Illustrated placeholder avatar for team member Ahmad.</desc>
  <defs>
    <linearGradient id="teamGradientAhmad" x1="0" x2="1" y1="0" y2="1">
      <stop offset="0" stop-color="#5b21b6" />
      <stop offset="1" stop-color="#7c3aed" />
    </linearGradient>
  </defs>
  <rect width="320" height="320" rx="28" fill="url(#teamGradientAhmad)" />
  <circle cx="160" cy="128" r="70" fill="#ede9fe" />
  <path d="M160 96a44 44 0 0 1 44 44v8a44 44 0 0 1-88 0v-8a44 44 0 0 1 44-44z" fill="#fff" />
  <path d="M160 76c28 0 52 22 52 58 0 12-3 22-7 30-8-18-26-30-45-30s-37 12-45 30c-4-8-7-18-7-30 0-36 24-58 52-58z" fill="#312e81" fill-opacity="0.5" />
  <path d="M72 260c18-54 66-72 88-72s70 18 88 72H72z" fill="#c4b5fd" />
</svg>
